<?xml version="1.0" encoding="UTF-8" standalone="no"?><svg xmlns="http://www.w3.org/2000/svg" xmlns:xlink="http://www.w3.org/1999/xlink" contentStyleType="text/css" height="424px" preserveAspectRatio="none" style="width:370px;height:424px;background:#FFFFFF;" version="1.1" viewBox="0 0 370 424" width="370px" zoomAndPan="magnify"><defs/><g><!--MD5=[7231450f633845da6e92cf0373678125]
class Chantier--><g id="elem_Chantier"><rect codeLine="1" fill="#F1F1F1" height="96.8906" id="Chantier" rx="2.5" ry="2.5" style="stroke:#181818;stroke-width:0.5;" width="174" x="7" y="321"/><ellipse cx="58.75" cy="337" fill="#ADD1B2" rx="11" ry="11" style="stroke:#181818;stroke-width:1.0;"/><path d="M61.0938,332.6719 C60.1563,332.2344 59.5625,332.0938 58.6875,332.0938 C56.0625,332.0938 54.0625,334.1719 54.0625,336.8906 L54.0625,338.0156 C54.0625,340.5938 56.1719,342.4844 59.0625,342.4844 C60.2813,342.4844 61.4375,342.1875 62.1875,341.6406 C62.7656,341.2344 63.0938,340.7813 63.0938,340.3906 C63.0938,339.9375 62.7031,339.5469 62.2344,339.5469 C62.0156,339.5469 61.8125,339.625 61.625,339.8125 C61.1719,340.2969 61.1719,340.2969 60.9844,340.3906 C60.5625,340.6563 59.875,340.7813 59.1094,340.7813 C57.0625,340.7813 55.7656,339.6875 55.7656,337.9844 L55.7656,336.8906 C55.7656,335.1094 57.0156,333.7969 58.75,333.7969 C59.3281,333.7969 59.9375,333.9531 60.4063,334.2031 C60.8906,334.4844 61.0625,334.7031 61.1563,335.1094 C61.2188,335.5156 61.25,335.6406 61.3906,335.7656 C61.5313,335.9063 61.7656,336.0156 61.9844,336.0156 C62.25,336.0156 62.5156,335.875 62.6875,335.6563 C62.7969,335.5 62.8281,335.3125 62.8281,334.8906 L62.8281,333.4688 C62.8281,333.0313 62.8125,332.9063 62.7188,332.75 C62.5625,332.4844 62.2813,332.3438 61.9844,332.3438 C61.6875,332.3438 61.4844,332.4375 61.2656,332.75 L61.0938,332.6719 Z " fill="#000000"/><text fill="#000000" font-family="sans-serif" font-size="14" lengthAdjust="spacing" textLength="62" x="79.25" y="341.8467">Chantier</text><line style="stroke:#181818;stroke-width:0.5;" x1="8" x2="180" y1="353" y2="353"/><text fill="#000000" font-family="sans-serif" font-size="14" lengthAdjust="spacing" textLength="162" x="13" y="369.9951">String date_de_depart</text><text fill="#000000" font-family="sans-serif" font-size="14" lengthAdjust="spacing" textLength="132" x="13" y="386.292">String date_de_fin</text><text fill="#000000" font-family="sans-serif" font-size="14" lengthAdjust="spacing" textLength="103" x="13" y="402.5889">String adresse</text><line style="stroke:#181818;stroke-width:0.5;" x1="8" x2="180" y1="409.8906" y2="409.8906"/></g><!--MD5=[5af42e8deca470f7497af2ac1ff748b8]
class Employé--><g id="elem_Employé"><rect codeLine="7" fill="#F1F1F1" height="96.8906" id="Employé" rx="2.5" ry="2.5" style="stroke:#181818;stroke-width:0.5;" width="152" x="18" y="7"/><ellipse cx="58.65" cy="23" fill="#ADD1B2" rx="11" ry="11" style="stroke:#181818;stroke-width:1.0;"/><path d="M60.9938,18.6719 C60.0563,18.2344 59.4625,18.0938 58.5875,18.0938 C55.9625,18.0938 53.9625,20.1719 53.9625,22.8906 L53.9625,24.0156 C53.9625,26.5938 56.0719,28.4844 58.9625,28.4844 C60.1813,28.4844 61.3375,28.1875 62.0875,27.6406 C62.6656,27.2344 62.9938,26.7813 62.9938,26.3906 C62.9938,25.9375 62.6031,25.5469 62.1344,25.5469 C61.9156,25.5469 61.7125,25.625 61.525,25.8125 C61.0719,26.2969 61.0719,26.2969 60.8844,26.3906 C60.4625,26.6563 59.775,26.7813 59.0094,26.7813 C56.9625,26.7813 55.6656,25.6875 55.6656,23.9844 L55.6656,22.8906 C55.6656,21.1094 56.9156,19.7969 58.65,19.7969 C59.2281,19.7969 59.8375,19.9531 60.3063,20.2031 C60.7906,20.4844 60.9625,20.7031 61.0563,21.1094 C61.1188,21.5156 61.15,21.6406 61.2906,21.7656 C61.4313,21.9063 61.6656,22.0156 61.8844,22.0156 C62.15,22.0156 62.4156,21.875 62.5875,21.6563 C62.6969,21.5 62.7281,21.3125 62.7281,20.8906 L62.7281,19.4688 C62.7281,19.0313 62.7125,18.9063 62.6188,18.75 C62.4625,18.4844 62.1813,18.3438 61.8844,18.3438 C61.5875,18.3438 61.3844,18.4375 61.1656,18.75 L60.9938,18.6719 Z " fill="#000000"/><text fill="#000000" font-family="sans-serif" font-size="14" lengthAdjust="spacing" textLength="63" x="78.35" y="27.8467">Employé</text><line style="stroke:#181818;stroke-width:0.5;" x1="19" x2="169" y1="39" y2="39"/><text fill="#000000" font-family="sans-serif" font-size="14" lengthAdjust="spacing" textLength="140" x="24" y="55.9951">Artisan typeArtisan</text><text fill="#000000" font-family="sans-serif" font-size="14" lengthAdjust="spacing" textLength="89" x="24" y="72.292">float horaire</text><text fill="#000000" font-family="sans-serif" font-size="14" lengthAdjust="spacing" textLength="132" x="24" y="88.5889">String coordonées</text><line style="stroke:#181818;stroke-width:0.5;" x1="19" x2="169" y1="95.8906" y2="95.8906"/></g><!--MD5=[453996aa839606c9e0a8dd2f1e73ab72]
class Salaire--><g id="elem_Salaire"><rect codeLine="18" fill="#F1F1F1" height="96.8906" id="Salaire" rx="2.5" ry="2.5" style="stroke:#181818;stroke-width:0.5;" width="232" x="131" y="164"/><ellipse cx="218.75" cy="180" fill="#ADD1B2" rx="11" ry="11" style="stroke:#181818;stroke-width:1.0;"/><path d="M221.0938,175.6719 C220.1563,175.2344 219.5625,175.0938 218.6875,175.0938 C216.0625,175.0938 214.0625,177.1719 214.0625,179.8906 L214.0625,181.0156 C214.0625,183.5938 216.1719,185.4844 219.0625,185.4844 C220.2813,185.4844 221.4375,185.1875 222.1875,184.6406 C222.7656,184.2344 223.0938,183.7813 223.0938,183.3906 C223.0938,182.9375 222.7031,182.5469 222.2344,182.5469 C222.0156,182.5469 221.8125,182.625 221.625,182.8125 C221.1719,183.2969 221.1719,183.2969 220.9844,183.3906 C220.5625,183.6563 219.875,183.7813 219.1094,183.7813 C217.0625,183.7813 215.7656,182.6875 215.7656,180.9844 L215.7656,179.8906 C215.7656,178.1094 217.0156,176.7969 218.75,176.7969 C219.3281,176.7969 219.9375,176.9531 220.4063,177.2031 C220.8906,177.4844 221.0625,177.7031 221.1563,178.1094 C221.2188,178.5156 221.25,178.6406 221.3906,178.7656 C221.5313,178.9063 221.7656,179.0156 221.9844,179.0156 C222.25,179.0156 222.5156,178.875 222.6875,178.6563 C222.7969,178.5 222.8281,178.3125 222.8281,177.8906 L222.8281,176.4688 C222.8281,176.0313 222.8125,175.9063 222.7188,175.75 C222.5625,175.4844 222.2813,175.3438 221.9844,175.3438 C221.6875,175.3438 221.4844,175.4375 221.2656,175.75 L221.0938,175.6719 Z " fill="#000000"/><text fill="#000000" font-family="sans-serif" font-size="14" lengthAdjust="spacing" textLength="48" x="239.25" y="184.8467">Salaire</text><line style="stroke:#181818;stroke-width:0.5;" x1="132" x2="362" y1="196" y2="196"/><text fill="#000000" font-family="sans-serif" font-size="14" lengthAdjust="spacing" textLength="220" x="137" y="212.9951">float Nombre_heures_effectué</text><text fill="#000000" font-family="sans-serif" font-size="14" lengthAdjust="spacing" textLength="144" x="137" y="229.292">float Salaire_cumulé</text><line style="stroke:#181818;stroke-width:0.5;" x1="132" x2="362" y1="236.5938" y2="236.5938"/><text fill="#000000" font-family="sans-serif" font-size="14" lengthAdjust="spacing" textLength="98" x="137" y="253.5889">calculSalaire()</text></g><ellipse cx="94" cy="212.5" fill="#000000" rx="2" ry="2" style="stroke:none;stroke-width:1.0;"/><!--MD5=[219165c64dd988c34badb32595f2994d]
link Employé to apoint356544--><g id="link_Employé_apoint356544"><path d="M94,104.27 C94,146.255 94,201.96 94,210.408 " fill="none" id="Employé-apoint356544" style="stroke:#181818;stroke-width:1.0;"/><text fill="#000000" font-family="sans-serif" font-size="13" lengthAdjust="spacing" textLength="7" x="86.5297" y="123.9144">*</text></g><!--MD5=[7501238215aa2c5f70cdc5296e33b4c1]
link apoint356544 to Chantier--><g id="link_apoint356544_Chantier"><path d="M94,214.84 C94,224.072 94,279.112 94,320.7037 " fill="none" id="apoint356544-Chantier" style="stroke:#181818;stroke-width:1.0;"/><text fill="#000000" font-family="sans-serif" font-size="13" lengthAdjust="spacing" textLength="23" x="69.3828" y="309.8713">0..*</text></g><!--MD5=[fc70cc46c283fcaa6656e6e1a43c8384]
link apoint356544 to Salaire--><g id="link_apoint356544_Salaire"><path d="M96.0918,212.5 C107.685,212.5 119.278,212.5 130.871,212.5 " fill="none" id="apoint356544-Salaire" style="stroke:#181818;stroke-width:1.0;stroke-dasharray:7.0,7.0;"/></g><!--MD5=[f5930a585f9d4f767602ede39d26502e]
@startuml
class Chantier{
    String date_de_depart
    String date_de_fin
    String adresse
}

class Employé{
    Artisan typeArtisan
    float horaire
    String coordonées


}

Employé "*"- -"0..*" Chantier
(Employé,Chantier) .. Salaire

class Salaire{
    float Nombre_heures_effectué
    float Salaire_cumulé
    calculSalaire()
}
@enduml

PlantUML version 1.2022.3beta2(Unknown compile time)
(GPL source distribution)
Java Runtime: Java(TM) SE Runtime Environment
JVM: Java HotSpot(TM) 64-Bit Server VM
Default Encoding: UTF-8
Language: en
Country: US
--></g></svg>