<?xml version="1.0" encoding="UTF-8" standalone="no"?><svg xmlns="http://www.w3.org/2000/svg" xmlns:xlink="http://www.w3.org/1999/xlink" contentStyleType="text/css" height="497px" preserveAspectRatio="none" style="width:1063px;height:497px;background:#FFFFFF;" version="1.1" viewBox="0 0 1063 497" width="1063px" zoomAndPan="magnify"><defs/><g><!--MD5=[a9bf9b4aa29c0366be246ece7a4a7778]
cluster Chantier--><g id="cluster_Chantier"><rect height="442" rx="2.5" ry="2.5" style="stroke:#181818;stroke-width:1.0;fill:none;" width="829" x="129" y="7"/><text fill="#000000" font-family="sans-serif" font-size="14" font-weight="bold" lengthAdjust="spacing" textLength="69" x="509" y="21.9951">Chantier</text></g><g id="elem_pac"><ellipse cx="240.9095" cy="404.0819" fill="#F1F1F1" rx="95.9095" ry="21.5819" style="stroke:#181818;stroke-width:0.5;"/><text fill="#000000" font-family="sans-serif" font-size="14" lengthAdjust="spacing" textLength="155" x="163.4095" y="406.9286">Participer au chantier</text></g><g id="elem_nbrH"><ellipse cx="569.8973" cy="407.1795" fill="#F1F1F1" rx="118.8973" ry="26.1795" style="stroke:#181818;stroke-width:0.5;"/><text fill="#000000" font-family="sans-serif" font-size="14" lengthAdjust="spacing" textLength="205" x="467.3973" y="410.0261">Nombre d'heures efféctuées</text></g><g id="elem_salaire"><ellipse cx="869.0678" cy="398.0136" fill="#F1F1F1" rx="73.0678" ry="17.0136" style="stroke:#181818;stroke-width:0.5;"/><text fill="#000000" font-family="sans-serif" font-size="14" lengthAdjust="spacing" textLength="101" x="815.5678" y="401.7611">Salaire calculé</text></g><g id="elem_uc1"><ellipse cx="240.9455" cy="160.1891" fill="#F1F1F1" rx="81.4455" ry="18.6891" style="stroke:#181818;stroke-width:0.5;"/><text fill="#000000" font-family="sans-serif" font-size="14" lengthAdjust="spacing" textLength="122" x="178.8109" y="163.409">Gerer le chantier</text></g><g id="elem_ddd"><ellipse cx="570.2198" cy="190.244" fill="#F1F1F1" rx="74.2198" ry="17.244" style="stroke:#181818;stroke-width:0.5;"/><text fill="#000000" font-family="sans-serif" font-size="14" lengthAdjust="spacing" textLength="104" x="515.2198" y="193.9915">Date de debut</text></g><g id="elem_ddf"><ellipse cx="569.92" cy="121.984" fill="#F1F1F1" rx="65.42" ry="15.484" style="stroke:#181818;stroke-width:0.5;"/><text fill="#000000" font-family="sans-serif" font-size="14" lengthAdjust="spacing" textLength="80" x="526.92" y="125.7316">Date de fin</text></g><g id="elem_adr"><ellipse cx="570.1007" cy="57.215" fill="#F1F1F1" rx="52.6007" ry="14.715" style="stroke:#181818;stroke-width:0.5;"/><text fill="#000000" font-family="sans-serif" font-size="14" lengthAdjust="spacing" textLength="57" x="538.6007" y="60.9626">Adresse</text></g><g id="elem_uc2"><ellipse cx="240.995" cy="259.199" fill="#F1F1F1" rx="83.995" ry="19.199" style="stroke:#181818;stroke-width:0.5;"/><text fill="#000000" font-family="sans-serif" font-size="14" lengthAdjust="spacing" textLength="128" x="176.7335" y="262.1356">Gerer ses artisans</text></g><g id="elem_Sh"><ellipse cx="570.0612" cy="328.2122" fill="#F1F1F1" rx="76.5612" ry="17.7122" style="stroke:#181818;stroke-width:0.5;"/><text fill="#000000" font-family="sans-serif" font-size="14" lengthAdjust="spacing" textLength="110" x="512.0612" y="331.9598">Salaire horaires</text></g><g id="elem_coo"><ellipse cx="569.8049" cy="259.061" fill="#F1F1F1" rx="70.8049" ry="16.561" style="stroke:#181818;stroke-width:0.5;"/><text fill="#000000" font-family="sans-serif" font-size="14" lengthAdjust="spacing" textLength="95" x="519.3049" y="262.8085">Coordonnées</text></g><!--MD5=[f38b7e6393ba0664c21da62e7868947a]
entity entreprise--><g id="elem_entreprise"><ellipse cx="44" cy="173.5" fill="#F1F1F1" rx="8" ry="8" style="stroke:#181818;stroke-width:0.5;"/><path d="M44,181.5 L44,208.5 M31,189.5 L57,189.5 M44,208.5 L31,223.5 M44,208.5 L57,223.5 " fill="none" style="stroke:#181818;stroke-width:0.5;"/><text fill="#000000" font-family="sans-serif" font-size="14" lengthAdjust="spacing" textLength="76" x="6" y="237.9951">Entreprise</text></g><!--MD5=[15b86fe90fe0593f00e1d2b86069c7a9]
entity artisan--><g id="elem_artisan"><ellipse cx="1030.5" cy="424.5" fill="#F1F1F1" rx="8" ry="8" style="stroke:#181818;stroke-width:0.5;"/><path d="M1030.5,432.5 L1030.5,459.5 M1017.5,440.5 L1043.5,440.5 M1030.5,459.5 L1017.5,474.5 M1030.5,459.5 L1043.5,474.5 " fill="none" style="stroke:#181818;stroke-width:0.5;"/><text fill="#000000" font-family="sans-serif" font-size="14" lengthAdjust="spacing" textLength="51" x="1005" y="488.9951">Artisan</text></g><!--MD5=[b134272a411236a217bc0f15c872e87c]
link artisan to pac--><g id="link_artisan_pac"><path d="M1004.86,455.7633 C924.715,461.0954 664.307,475.2485 451,451 C399.635,445.1609 342.433,431.8064 300.876,420.8192 " fill="none" id="artisan-pac" style="stroke:#181818;stroke-width:1.0;"/></g><!--MD5=[34610030bdb74147f34bb075ef433658]
reverse link pac to nbrH--><g id="link_pac_nbrH"><path d="M342.067,404.918 C376.491,405.2339 415.355,405.5904 451.067,405.918 " fill="none" id="pac-backto-nbrH" style="stroke:#181818;stroke-width:1.0;stroke-dasharray:7.0,7.0;"/><polygon fill="#181818" points="337.021,404.8718,345.9841,408.9539,342.0208,404.9175,346.0572,400.9543,337.021,404.8718" style="stroke:#181818;stroke-width:1.0;"/><text fill="#000000" font-family="sans-serif" font-size="13" lengthAdjust="spacing" textLength="52" x="368" y="401.0669">extends</text></g><!--MD5=[bdd0dd3e60bfb24b6e96052a2dede006]
reverse link nbrH to salaire--><g id="link_nbrH_salaire"><path d="M693.132,403.299 C728.319,402.2328 765.546,401.1047 796.567,400.1646 " fill="none" id="nbrH-backto-salaire" style="stroke:#181818;stroke-width:1.0;"/><polygon fill="#181818" points="687.956,403.4559,697.073,407.1815,692.9537,403.3045,696.8307,399.1852,687.956,403.4559" style="stroke:#181818;stroke-width:1.0;"/><text fill="#000000" font-family="sans-serif" font-size="13" lengthAdjust="spacing" textLength="45" x="720" y="397.0669">include</text></g><!--MD5=[3afe3c43754e6ac4f90ae60a654d8873]
link salaire to artisan--><g id="link_salaire_artisan"><path d="M910.249,412.1312 C939.965,422.5644 979.47,436.4347 1004.698,445.2923 " fill="none" id="salaire-artisan" style="stroke:#181818;stroke-width:1.0;"/></g><!--MD5=[71c27870a47402bdfa7e7e9ba6d44dfe]
link Sh to salaire--><g id="link_Sh_salaire"><path d="M624.098,340.515 C676.953,352.972 757.771,372.02 811.717,384.735 " fill="none" id="Sh-to-salaire" style="stroke:#181818;stroke-width:1.0;"/><polygon fill="#181818" points="816.851,385.945,809.0086,379.987,811.9843,384.798,807.1734,387.7737,816.851,385.945" style="stroke:#181818;stroke-width:1.0;"/><text fill="#000000" font-family="sans-serif" font-size="13" lengthAdjust="spacing" textLength="45" x="720" y="359.0669">include</text></g><!--MD5=[0c11c56ed76bdac90847d12d801a0f6f]
link entreprise to uc1--><g id="link_entreprise_uc1"><path d="M82.137,194.811 C108.884,188.913 145.624,180.811 176.93,173.908 " fill="none" id="entreprise-to-uc1" style="stroke:#181818;stroke-width:1.0;"/><polygon fill="#181818" points="181.905,172.811,172.2552,170.841,177.0221,173.8867,173.9763,178.6536,181.905,172.811" style="stroke:#181818;stroke-width:1.0;"/></g><!--MD5=[82edde7143546a9baa82bd5074adce0b]
link entreprise to uc2--><g id="link_entreprise_uc2"><path d="M82.137,213.665 C110.667,221.858 150.567,233.317 183.114,242.663 " fill="none" id="entreprise-to-uc2" style="stroke:#181818;stroke-width:1.0;"/><polygon fill="#181818" points="188.272,244.145,180.7256,237.8163,183.4662,242.765,178.5176,245.5056,188.272,244.145" style="stroke:#181818;stroke-width:1.0;"/></g><!--MD5=[f1ee8fe85e068df0b51a77e2891391f9]
reverse link uc1 to ddd--><g id="link_uc1_ddd"><path d="M303.077,174.407 C323.307,178.591 346.014,182.659 367,185 C409.534,189.744 457.404,191.102 495.865,191.224 " fill="none" id="uc1-backto-ddd" style="stroke:#181818;stroke-width:1.0;stroke-dasharray:7.0,7.0;"/><polygon fill="#181818" points="297.99,173.342,305.9798,179.1008,302.884,174.3662,307.6185,171.2704,297.99,173.342" style="stroke:#181818;stroke-width:1.0;"/><text fill="#000000" font-family="sans-serif" font-size="13" lengthAdjust="spacing" textLength="52" x="368" y="181.0669">extends</text></g><!--MD5=[ef1293e31fc4aa40cd441a30322315a8]
reverse link uc1 to ddf--><g id="link_uc1_ddf"><path d="M319.018,151.05 C377.716,144.229 457.295,134.981 510.758,128.768 " fill="none" id="uc1-backto-ddf" style="stroke:#181818;stroke-width:1.0;stroke-dasharray:7.0,7.0;"/><polygon fill="#181818" points="313.762,151.661,323.1635,154.5955,318.7286,151.0839,322.2402,146.649,313.762,151.661" style="stroke:#181818;stroke-width:1.0;"/><text fill="#000000" font-family="sans-serif" font-size="13" lengthAdjust="spacing" textLength="52" x="368" y="136.0669">extends</text></g><!--MD5=[8935d3a3b50b046d3c8bbbbc8fe849e4]
reverse link uc1 to adr--><g id="link_uc1_adr"><path d="M289.25,142.418 C312.567,133.888 341.168,123.643 367,115 C404.062,102.6 413.468,99.894 451,89 C477.704,81.249 507.977,73.051 531.174,66.894 " fill="none" id="uc1-backto-adr" style="stroke:#181818;stroke-width:1.0;stroke-dasharray:7.0,7.0;"/><polygon fill="#181818" points="284.357,144.211,294.1838,144.8705,289.0518,142.4908,291.4315,137.3588,284.357,144.211" style="stroke:#181818;stroke-width:1.0;"/><text fill="#000000" font-family="sans-serif" font-size="13" lengthAdjust="spacing" textLength="52" x="368" y="94.0669">extends</text></g><!--MD5=[80854301a84a22d9286c1922ea4f08f1]
reverse link uc2 to Sh--><g id="link_uc2_Sh"><path d="M308.134,272.955 C368.354,285.662 456.293,304.218 513.087,316.202 " fill="none" id="uc2-backto-Sh" style="stroke:#181818;stroke-width:1.0;stroke-dasharray:7.0,7.0;"/><polygon fill="#181818" points="303.123,271.897,311.104,277.6679,308.0154,272.9286,312.7547,269.84,303.123,271.897" style="stroke:#181818;stroke-width:1.0;"/><text fill="#000000" font-family="sans-serif" font-size="13" lengthAdjust="spacing" textLength="52" x="368" y="283.0669">extends</text></g><!--MD5=[0d679c533b003a864b39be0e94c9f552]
reverse link uc2 to coo--><g id="link_uc2_coo"><path d="M330.435,259 C383.297,259 449.531,259 498.788,259 " fill="none" id="uc2-backto-coo" style="stroke:#181818;stroke-width:1.0;stroke-dasharray:7.0,7.0;"/><polygon fill="#181818" points="325.362,259,334.362,263,330.362,259,334.362,255,325.362,259" style="stroke:#181818;stroke-width:1.0;"/><text fill="#000000" font-family="sans-serif" font-size="13" lengthAdjust="spacing" textLength="52" x="368" y="255.0669">extends</text></g><!--MD5=[ec993495b8ebdd3b0d300f1aabba8a4c]
@startuml
left to right direction
:Entreprise: as entreprise
:Artisan: as artisan 
rectangle Chantier {
    usecase "Participer au chantier" as pac
    usecase "Nombre d'heures efféctuées" as nbrH
    usecase "Salaire calculé" as salaire

  usecase "Gerer le chantier" AS uc1
  usecase "Date de debut" as ddd
  usecase "Date de fin" as ddf 
  usecase "Adresse" as adr

  usecase "Gerer ses artisans" AS uc2
  usecase "Salaire horaires" as Sh 
  usecase "Coordonnées" as coo


}
artisan - - pac
pac <.. nbrH : extends
nbrH <- - salaire : include
salaire - - artisan
Sh - -> salaire : include
entreprise - -> uc1 
entreprise - -> uc2
uc1 <.. ddd : extends
uc1 <.. ddf : extends
uc1 <.. adr : extends

uc2 <.. Sh : extends
uc2 <.. coo : extends
@enduml

PlantUML version 1.2022.3beta2(Unknown compile time)
(GPL source distribution)
Java Runtime: Java(TM) SE Runtime Environment
JVM: Java HotSpot(TM) 64-Bit Server VM
Default Encoding: UTF-8
Language: en
Country: US
--></g></svg>